<svg id="Layer_1" data-name="Layer 1" xmlns="http://www.w3.org/2000/svg" xmlns:xlink="http://www.w3.org/1999/xlink" viewBox="0 0 1000 1000"><defs><style>.cls-1{fill:url(#linear-gradient);}.cls-2{fill:url(#linear-gradient-2);}.cls-3{fill:url(#linear-gradient-3);}.cls-4{fill:url(#linear-gradient-4);}.cls-5{fill:url(#linear-gradient-5);}</style><linearGradient id="linear-gradient" x1="487.487" y1="987.448" x2="489.37" y2="24.932" gradientUnits="userSpaceOnUse"><stop offset="0" stop-color="#666"/><stop offset="1" stop-color="#fff"/></linearGradient><linearGradient id="linear-gradient-2" x1="489.237" y1="987.452" x2="491.121" y2="24.935" xlink:href="#linear-gradient"/><linearGradient id="linear-gradient-3" x1="160.067" y1="986.808" x2="161.95" y2="24.291" xlink:href="#linear-gradient"/><linearGradient id="linear-gradient-4" x1="488.362" y1="987.45" x2="490.246" y2="24.934" xlink:href="#linear-gradient"/><linearGradient id="linear-gradient-5" x1="827.342" y1="988.113" x2="829.225" y2="25.597" xlink:href="#linear-gradient"/></defs><title>logo</title><path class="cls-1" d="M452.839,164.535l-145.91-149.1a50.813,50.813,0,0,0-72.955,0h0a53.531,53.531,0,0,0,0,74.548l182.387,186.37h0l36.478,37.274a50.811,50.811,0,0,0,72.954,0L744.658,89.987a53.531,53.531,0,0,0,0-74.548h0a50.813,50.813,0,0,0-72.955,0l-145.91,149.1A50.81,50.81,0,0,1,452.839,164.535Z" transform="translate(0 0)"/><path class="cls-2" d="M525.793,835.465,671.7,984.56a50.811,50.811,0,0,0,72.955,0h0a53.531,53.531,0,0,0,0-74.548L562.271,723.643h0l-36.478-37.274a50.811,50.811,0,0,0-72.954,0L233.974,910.013a53.531,53.531,0,0,0,0,74.548h0a50.813,50.813,0,0,0,72.955,0l145.91-149.1A50.81,50.81,0,0,1,525.793,835.465Z" transform="translate(0 0)"/><path class="cls-3" d="M124.542,500,88.064,462.726a50.81,50.81,0,0,0-72.954,0h0a53.533,53.533,0,0,0,0,74.548l36.478,37.274a53.53,53.53,0,0,1,0,74.547L15.109,686.369a53.533,53.533,0,0,0,0,74.548h0a50.81,50.81,0,0,0,72.954,0L306.929,537.274a53.531,53.531,0,0,0,0-74.548h0a50.811,50.811,0,0,0-72.955,0L197.5,500A50.811,50.811,0,0,1,124.542,500Z" transform="translate(0 0)"/><path class="cls-4" d="M854.09,798.191,598.748,537.274a53.531,53.531,0,0,1,0-74.548L854.09,201.809a53.531,53.531,0,0,0,0-74.548h0a50.811,50.811,0,0,0-72.955,0L525.793,388.178a50.81,50.81,0,0,1-72.954,0L197.5,127.261a50.811,50.811,0,0,0-72.955,0h0a53.531,53.531,0,0,0,0,74.548L379.884,462.726a53.531,53.531,0,0,1,0,74.548L124.542,798.191a53.531,53.531,0,0,0,0,74.548h0a50.811,50.811,0,0,0,72.955,0L452.839,611.822a50.81,50.81,0,0,1,72.954,0L781.135,872.739a50.811,50.811,0,0,0,72.955,0h0A53.531,53.531,0,0,0,854.09,798.191Z" transform="translate(0 0)"/><path class="cls-5" d="M948.932,447.817H832.2L963.523,313.63a53.531,53.531,0,0,0,0-74.547h0a50.81,50.81,0,0,0-72.954,0L708.181,425.452h0L671.7,462.726a53.531,53.531,0,0,0,0,74.548L890.568,760.917a50.811,50.811,0,0,0,72.955,0h0a53.531,53.531,0,0,0,0-74.548L832.2,552.183H948.932c28.2,0,51.068-23.363,51.068-52.183h0C1000,471.18,977.136,447.817,948.932,447.817Z" transform="translate(0 0)"/></svg>